<svg width="689" height="204" viewBox="0 0 689 204" fill="none" xmlns="http://www.w3.org/2000/svg">
<g clip-path="url(#clip0_454_1099)">
<path d="M280.369 71.252H291.833V78.9459H280.369V98.0078C280.369 99.9313 280.687 105.327 287.371 105.327C288.889 105.35 290.4 105.106 291.833 104.605V112.501C289.632 113.046 287.369 113.308 285.101 113.28C271.406 113.28 271.406 101.182 271.406 98.3252V78.8979H264.395V71.2039H271.406V60.4227L280.321 55.3254L280.369 71.252Z" fill="#181818"/>
<path d="M373.168 71.6262L371.918 76.1079C369.34 73.3477 366.503 71.0203 359.184 71.0203C351.865 71.0203 344.546 74.8673 344.546 86.9372V97.7664C344.546 109.865 351.865 113.683 359.184 113.683C366.503 113.683 369.34 111.356 371.918 108.596L373.197 113.077H380.198V71.6262H373.168ZM371.244 97.4202C371.244 99.6515 369.321 106.076 361.367 106.076C353.414 106.076 353.414 99.3437 353.414 98.1127V86.6198C353.414 85.3407 353.414 78.6565 361.367 78.6565C369.321 78.6565 371.244 85.0522 371.244 87.3123V97.4202Z" fill="#181818"/>
<path d="M327.197 97.4394C327.197 99.6706 325.273 106.095 317.32 106.095C309.366 106.095 309.356 99.3629 309.356 98.1414V71.6646H300.441V97.7567C300.441 109.856 307.769 113.674 315.088 113.674C322.407 113.674 325.244 111.346 327.831 108.586L329.101 113.068H336.112V71.7126H327.197V97.4394Z" fill="#181818"/>
<path d="M247.516 97.4394C247.516 99.6706 245.592 106.095 237.638 106.095C229.685 106.095 229.675 99.3629 229.675 98.1414V71.6646H220.76V97.7567C220.76 109.856 228.088 113.674 235.407 113.674C242.726 113.674 245.563 111.346 248.15 108.586L249.42 113.068H256.431V71.7126H247.516V97.4394Z" fill="#181818"/>
<path d="M199.053 71.0112C196.655 71.0427 194.298 71.638 192.174 72.749C190.048 73.8601 188.214 75.4557 186.82 77.4068C185.108 74.0311 181.684 71.0208 174.856 71.0208C172.743 71.0318 170.655 71.491 168.732 72.3679C166.809 73.2449 165.094 74.5198 163.699 76.1085L162.43 71.6556H155.428V113.011H164.344V87.5629C164.344 85.3316 166.267 78.9649 172.624 78.9649C179.308 78.9649 179.626 84.3795 179.626 86.2742V113.011H188.541V87.5629C188.541 85.3316 190.465 78.9649 196.822 78.9649C203.506 78.9649 203.833 84.3795 203.833 86.2742V113.011H212.748V85.9664C212.748 83.11 212.748 71.0112 199.053 71.0112Z" fill="#181818"/>
<path d="M600.034 55.3152H591.119V112.635H600.034V55.3152Z" fill="#181818"/>
<path d="M636.706 94.5831H645.621V86.9372C645.621 74.8384 636.379 71.0203 627.781 71.0203C619.183 71.0203 609.95 74.8673 609.95 86.9372V97.7664C609.95 109.865 619.183 113.683 627.781 113.693C635.908 113.693 644.602 110.269 645.535 99.6707H636.571C636.148 101.96 634.427 106.047 627.781 106.047C619.51 106.047 618.866 99.6707 618.866 98.3531V94.5061L636.706 94.5831ZM618.866 86.3024C618.866 85.0233 619.51 78.6565 627.781 78.6565C636.062 78.6565 636.706 85.0233 636.706 86.3024V87.5719H618.866V86.3024Z" fill="#181818"/>
<path d="M579.789 55.3152H570.874V64.2306H579.789V55.3152Z" fill="#181818"/>
<path d="M579.789 71.2322H570.874V112.626H579.789V71.2322Z" fill="#181818"/>
<path d="M455.234 71.0112C452.836 71.0418 450.481 71.6369 448.357 72.748C446.234 73.8593 444.402 75.4554 443.01 77.4068C441.288 74.0311 437.865 71.0208 431.036 71.0208C428.923 71.0307 426.837 71.4894 424.916 72.3665C422.994 73.2436 421.28 74.5191 419.89 76.1085L418.62 71.6556H411.609V113.011H420.524V87.5629C420.524 85.3316 422.448 78.9649 428.805 78.9649C435.537 78.9649 435.816 84.3795 435.816 86.2742V113.011H444.731V87.5629C444.731 85.3316 446.655 78.9649 453.012 78.9649C459.696 78.9649 460.014 84.3795 460.014 86.2742V113.011H468.929V85.9664C468.929 83.11 468.929 71.0112 455.234 71.0112Z" fill="#181818"/>
<path d="M545.821 70.6172C539.089 70.6172 536.155 72.5407 533.722 75.0509V55.3254H524.835V112.674H531.837L533.116 108.193C535.694 110.953 538.531 113.28 545.85 113.28C553.178 113.28 560.497 109.433 560.497 97.3634V86.5341C560.468 74.4354 553.149 70.6172 545.821 70.6172ZM551.591 97.6808C551.591 98.9503 551.591 105.644 543.628 105.644C535.665 105.644 533.76 99.2484 533.76 96.9883V86.8804C533.76 84.6491 535.684 78.2246 543.628 78.2246C551.572 78.2246 551.591 84.9569 551.591 86.1879V97.6808Z" fill="#181818"/>
<path d="M400.347 55.3152H391.432V112.606H400.347V55.3152Z" fill="#181818"/>
<path d="M496.714 71.0203C488.116 71.0203 478.883 74.8672 478.883 86.9372V97.7664C478.883 109.865 488.116 113.683 496.714 113.693C505.312 113.703 514.544 109.846 514.544 97.7664V86.9372C514.544 74.8384 505.312 71.0203 496.714 71.0203ZM505.6 98.0838C505.6 99.3533 504.965 106.047 496.685 106.047C488.404 106.047 487.769 99.3148 487.769 98.0838V86.6198C487.769 85.3407 488.404 78.6565 496.685 78.6565C504.965 78.6565 505.6 85.3407 505.6 86.6198V98.0838Z" fill="#181818"/>
<path d="M86.6465 43.6306L64.9727 65.3045L86.6465 86.9784L108.32 65.3045L86.6465 43.6306Z" fill="#181818"/>
<path d="M65.1202 107.106V65.1689L43 43.6306V85.1968L65.1202 107.106Z" fill="#181818"/>
<path d="M124.748 125.378V82.3584L108.144 65.75V107.7H65.1201L82.7946 125.378H124.748Z" fill="#181818"/>
<path d="M55.8809 154.454H47.7754L45.5762 160.897H43L51.3254 137.284H52.5193L60.8762 160.897H58.1429L55.8809 154.454ZM48.6236 152.063H55.0954L52.645 144.989L51.8595 141.469H51.8281L51.0427 145.056L48.6236 152.063Z" fill="#181818"/>
<path d="M97.6315 149.307H105.014V159.536C104.679 159.801 104.271 160.044 103.789 160.267C103.328 160.488 102.826 160.675 102.281 160.831C101.758 160.986 101.203 161.097 100.616 161.163C100.051 161.251 99.4956 161.296 98.951 161.296C97.5477 161.296 96.2597 161.063 95.0868 160.598C93.9139 160.111 92.8981 159.381 92.0393 158.407C91.1806 157.41 90.5105 156.159 90.0287 154.654C89.547 153.127 89.3062 151.333 89.3062 149.274C89.3062 147.126 89.5993 145.288 90.1858 143.761C90.7722 142.234 91.5367 140.993 92.4792 140.042C93.4217 139.067 94.4794 138.359 95.6523 137.916C96.8252 137.473 97.998 137.252 99.171 137.252C100.428 137.252 101.464 137.329 102.281 137.484C103.098 137.617 103.789 137.805 104.355 138.049L103.695 140.473C102.69 139.964 101.255 139.709 99.3909 139.709C98.5112 139.709 97.6315 139.876 96.7519 140.207C95.8932 140.517 95.1182 141.049 94.4271 141.802C93.7359 142.554 93.1704 143.54 92.7305 144.757C92.2907 145.975 92.0708 147.48 92.0708 149.274C92.0708 150.912 92.2488 152.329 92.6048 153.525C92.9609 154.72 93.4531 155.717 94.0814 156.514C94.7307 157.288 95.5057 157.875 96.4063 158.274C97.3069 158.65 98.2913 158.838 99.3595 158.838C100.7 158.838 101.841 158.561 102.784 158.007V151.532L97.6315 150.867V149.307Z" fill="#181818"/>
<path d="M119.12 137.882C119.916 137.727 120.827 137.605 121.853 137.517C122.901 137.428 123.854 137.384 124.712 137.384C125.676 137.384 126.587 137.495 127.446 137.716C128.325 137.938 129.09 138.303 129.739 138.812C130.409 139.321 130.943 139.985 131.341 140.805C131.739 141.624 131.938 142.62 131.938 143.793C131.938 145.609 131.467 147.081 130.524 148.21C129.582 149.339 128.388 150.092 126.943 150.468L128.451 151.698L133.917 160.897H130.87L124.807 150.867L121.728 150.369V160.897H119.12V137.882ZM124.775 139.775C124.503 139.775 124.22 139.775 123.927 139.775C123.634 139.775 123.351 139.786 123.079 139.808C122.806 139.831 122.545 139.853 122.293 139.875C122.063 139.897 121.874 139.93 121.728 139.974V148.542H124.178C125.623 148.542 126.817 148.166 127.76 147.413C128.702 146.661 129.174 145.488 129.174 143.893C129.174 142.698 128.786 141.713 128.011 140.938C127.236 140.162 126.157 139.775 124.775 139.775Z" fill="#181818"/>
<path d="M148.069 137.65H150.676V160.897H148.069V137.65Z" fill="#181818"/>
<path d="M166.281 137.65C166.678 137.583 167.119 137.539 167.601 137.517C168.103 137.473 168.616 137.45 169.14 137.45C169.684 137.428 170.208 137.417 170.711 137.417C171.234 137.395 171.716 137.384 172.156 137.384C173.915 137.384 175.433 137.672 176.711 138.247C178.01 138.823 179.078 139.632 179.916 140.672C180.754 141.691 181.371 142.919 181.769 144.359C182.189 145.797 182.397 147.38 182.397 149.107C182.397 150.679 182.199 152.196 181.801 153.657C181.424 155.095 180.816 156.38 179.978 157.509C179.141 158.616 178.052 159.513 176.711 160.199C175.371 160.863 173.747 161.195 171.842 161.195C171.506 161.195 171.067 161.184 170.523 161.162C169.998 161.162 169.454 161.14 168.889 161.096C168.323 161.074 167.799 161.052 167.318 161.029C166.836 161.007 166.49 160.974 166.281 160.929V137.65ZM172.218 139.841C171.946 139.841 171.643 139.841 171.307 139.841C170.994 139.841 170.679 139.853 170.365 139.875C170.051 139.897 169.758 139.919 169.486 139.941C169.234 139.963 169.035 139.985 168.889 140.008V158.605C168.993 158.627 169.192 158.649 169.486 158.671C169.778 158.671 170.082 158.683 170.397 158.705C170.71 158.705 171.014 158.715 171.307 158.738C171.601 158.738 171.8 158.738 171.905 158.738C173.37 158.738 174.596 158.472 175.58 157.94C176.585 157.409 177.382 156.701 177.967 155.815C178.575 154.908 179.004 153.878 179.256 152.727C179.507 151.553 179.633 150.346 179.633 149.107C179.633 148.022 179.518 146.937 179.287 145.852C179.057 144.745 178.659 143.749 178.093 142.864C177.528 141.978 176.763 141.259 175.8 140.705C174.857 140.13 173.664 139.841 172.218 139.841Z" fill="#181818"/>
<path d="M214.546 137.65C214.944 137.583 215.384 137.539 215.865 137.517C216.368 137.473 216.882 137.45 217.405 137.45C217.95 137.428 218.474 137.417 218.976 137.417C219.5 137.395 219.982 137.384 220.421 137.384C222.18 137.384 223.699 137.672 224.977 138.247C226.275 138.823 227.343 139.632 228.182 140.672C229.019 141.691 229.637 142.919 230.035 144.359C230.453 145.797 230.663 147.38 230.663 149.107C230.663 150.679 230.464 152.196 230.067 153.657C229.69 155.095 229.082 156.38 228.244 157.509C227.406 158.616 226.317 159.513 224.977 160.199C223.636 160.863 222.013 161.195 220.107 161.195C219.772 161.195 219.332 161.184 218.787 161.162C218.264 161.162 217.72 161.14 217.154 161.096C216.589 161.074 216.064 161.052 215.583 161.029C215.101 161.007 214.756 160.974 214.546 160.929V137.65ZM220.484 139.841C220.212 139.841 219.908 139.841 219.573 139.841C219.258 139.841 218.945 139.853 218.63 139.875C218.316 139.897 218.023 139.919 217.75 139.941C217.499 139.963 217.3 139.985 217.154 140.008V158.605C217.258 158.627 217.457 158.649 217.75 158.671C218.044 158.671 218.348 158.683 218.662 158.705C218.976 158.705 219.28 158.715 219.573 158.738C219.866 158.738 220.065 158.738 220.17 158.738C221.636 158.738 222.861 158.472 223.846 157.94C224.851 157.409 225.646 156.701 226.233 155.815C226.841 154.908 227.27 153.878 227.522 152.727C227.773 151.553 227.899 150.346 227.899 149.107C227.899 148.022 227.783 146.937 227.553 145.852C227.323 144.745 226.925 143.749 226.359 142.864C225.794 141.978 225.029 141.259 224.065 140.705C223.123 140.13 221.929 139.841 220.484 139.841Z" fill="#181818"/>
<path d="M248.319 151.664L241.062 137.65H244.108L249.261 147.812L249.795 149.837H249.827L250.392 147.746L255.324 137.65H258.121L250.926 151.631V160.897H248.319V151.664Z" fill="#181818"/>
<path d="M274.624 145.687L272.928 142.332H272.802L273.116 145.687V160.897H270.666V137.284H272.048L282.572 152.793L284.206 155.981H284.363L284.017 152.793V137.65H286.468V161.261H285.086L274.624 145.687Z" fill="#181818"/>
<path d="M311.932 154.454H303.826L301.628 160.897H299.051L307.377 137.284H308.571L316.927 160.897H314.194L311.932 154.454ZM304.675 152.063H311.147L308.697 144.989L307.911 141.469H307.879L307.094 145.056L304.675 152.063Z" fill="#181818"/>
<path d="M346.417 145.287L346.731 141.801H346.574L345.381 144.989L339.662 155.483H338.877L332.813 144.956L331.682 141.801H331.526L331.965 145.255V160.897H329.515V137.65H331.462L338.343 149.538L339.379 152.129H339.443L340.416 149.472L346.983 137.65H349.025V160.897H346.417V145.287Z" fill="#181818"/>
<path d="M364.63 137.65H367.237V160.897H364.63V137.65Z" fill="#181818"/>
<path d="M396.917 159.934C396.289 160.444 395.493 160.797 394.529 160.997C393.566 161.196 392.54 161.296 391.451 161.296C390.131 161.296 388.895 161.063 387.743 160.598C386.592 160.111 385.586 159.381 384.727 158.407C383.869 157.432 383.188 156.193 382.685 154.687C382.183 153.159 381.931 151.355 381.931 149.274C381.931 147.104 382.203 145.266 382.749 143.761C383.314 142.234 384.047 140.993 384.947 140.042C385.869 139.067 386.895 138.359 388.026 137.916C389.157 137.473 390.309 137.252 391.482 137.252C392.738 137.252 393.765 137.329 394.561 137.484C395.357 137.617 396.037 137.805 396.603 138.049L395.975 140.473C394.97 139.964 393.535 139.709 391.671 139.709C390.812 139.709 389.964 139.876 389.126 140.207C388.288 140.54 387.534 141.083 386.864 141.835C386.215 142.588 385.691 143.573 385.293 144.79C384.895 146.009 384.696 147.502 384.696 149.274C384.696 150.867 384.885 152.263 385.262 153.458C385.639 154.654 386.151 155.65 386.8 156.447C387.471 157.244 388.246 157.842 389.126 158.24C390.026 158.639 391 158.838 392.048 158.838C392.99 158.838 393.807 158.738 394.498 158.539C395.21 158.34 395.807 158.085 396.289 157.776L396.917 159.934Z" fill="#181818"/>
<path d="M420.385 154.986C420.385 154.056 420.123 153.304 419.6 152.727C419.076 152.13 418.416 151.61 417.621 151.167C416.846 150.702 415.997 150.27 415.076 149.872C414.154 149.473 413.295 148.997 412.499 148.444C411.724 147.868 411.075 147.17 410.552 146.351C410.028 145.51 409.766 144.448 409.766 143.163C409.766 141.348 410.363 139.908 411.557 138.846C412.75 137.783 414.447 137.252 416.647 137.252C417.924 137.252 419.086 137.352 420.134 137.551C421.181 137.75 421.998 138.005 422.584 138.315L421.799 140.739C421.317 140.495 420.605 140.263 419.663 140.042C418.741 139.82 417.694 139.709 416.521 139.709C415.139 139.709 414.102 140.042 413.41 140.706C412.72 141.348 412.373 142.112 412.373 142.997C412.373 143.861 412.636 144.58 413.159 145.156C413.682 145.732 414.333 146.252 415.107 146.717C415.903 147.16 416.762 147.602 417.683 148.045C418.605 148.488 419.453 149.008 420.228 149.606C421.023 150.182 421.683 150.879 422.207 151.698C422.731 152.517 422.993 153.535 422.993 154.754C422.993 155.749 422.825 156.647 422.49 157.443C422.154 158.24 421.663 158.927 421.014 159.502C420.364 160.078 419.579 160.52 418.658 160.831C417.735 161.141 416.688 161.296 415.516 161.296C413.945 161.296 412.646 161.163 411.619 160.897C410.593 160.653 409.798 160.377 409.232 160.067L410.111 157.577C410.593 157.864 411.306 158.152 412.248 158.439C413.191 158.706 414.248 158.838 415.421 158.838C416.113 158.838 416.762 158.772 417.369 158.639C417.977 158.483 418.5 158.252 418.94 157.941C419.38 157.609 419.725 157.2 419.977 156.713C420.249 156.225 420.385 155.65 420.385 154.986Z" fill="#181818"/>
<path d="M468.931 159.934C468.303 160.444 467.507 160.797 466.544 160.997C465.58 161.196 464.554 161.296 463.465 161.296C462.145 161.296 460.91 161.063 459.758 160.598C458.605 160.111 457.6 159.381 456.742 158.407C455.883 157.432 455.202 156.193 454.7 154.687C454.197 153.159 453.946 151.355 453.946 149.274C453.946 147.104 454.218 145.266 454.762 143.761C455.328 142.234 456.061 140.993 456.962 140.042C457.883 139.067 458.909 138.359 460.04 137.916C461.171 137.473 462.324 137.252 463.496 137.252C464.753 137.252 465.779 137.329 466.575 137.484C467.371 137.617 468.052 137.805 468.617 138.049L467.988 140.473C466.983 139.964 465.548 139.709 463.684 139.709C462.826 139.709 461.977 139.876 461.14 140.207C460.302 140.54 459.548 141.083 458.878 141.835C458.228 142.588 457.705 143.573 457.307 144.79C456.909 146.009 456.71 147.502 456.71 149.274C456.71 150.867 456.898 152.263 457.275 153.458C457.652 154.654 458.166 155.65 458.815 156.447C459.485 157.244 460.261 157.842 461.14 158.24C462.041 158.639 463.014 158.838 464.061 158.838C465.004 158.838 465.82 158.738 466.512 158.539C467.225 158.34 467.821 158.085 468.303 157.776L468.931 159.934Z" fill="#181818"/>
<path d="M480.731 149.274C480.731 145.399 481.507 142.433 483.057 140.374C484.606 138.293 486.816 137.252 489.685 137.252C491.236 137.252 492.576 137.54 493.707 138.115C494.838 138.691 495.77 139.51 496.503 140.573C497.257 141.613 497.812 142.875 498.168 144.359C498.524 145.82 498.703 147.458 498.703 149.274C498.703 153.149 497.917 156.126 496.346 158.207C494.796 160.267 492.576 161.296 489.685 161.296C488.157 161.296 486.827 161.008 485.696 160.432C484.585 159.857 483.653 159.048 482.899 158.007C482.166 156.946 481.622 155.683 481.266 154.222C480.909 152.739 480.731 151.09 480.731 149.274ZM483.496 149.274C483.496 150.558 483.612 151.775 483.842 152.927C484.094 154.078 484.471 155.096 484.973 155.982C485.476 156.846 486.114 157.543 486.89 158.075C487.686 158.584 488.618 158.838 489.685 158.838C491.634 158.838 493.162 158.063 494.273 156.514C495.383 154.941 495.938 152.528 495.938 149.274C495.938 148.012 495.812 146.805 495.561 145.654C495.33 144.48 494.953 143.462 494.43 142.598C493.927 141.713 493.277 141.015 492.482 140.507C491.707 139.975 490.775 139.709 489.685 139.709C487.759 139.709 486.24 140.495 485.13 142.067C484.041 143.617 483.496 146.019 483.496 149.274Z" fill="#181818"/>
<path d="M529.688 145.287L530.003 141.801H529.845L528.652 144.989L522.934 155.483H522.148L516.084 144.956L514.953 141.801H514.797L515.236 145.255V160.897H512.786V137.65H514.734L521.614 149.538L522.651 152.129H522.714L523.688 149.472L530.254 137.65H532.296V160.897H529.688V145.287Z" fill="#181818"/>
<path d="M547.303 137.882C548.1 137.683 548.958 137.55 549.88 137.484C550.801 137.417 551.712 137.384 552.613 137.384C553.577 137.384 554.55 137.484 555.535 137.683C556.54 137.882 557.451 138.247 558.268 138.779C559.085 139.31 559.744 140.041 560.247 140.97C560.771 141.9 561.032 143.085 561.032 144.524C561.032 145.941 560.792 147.137 560.31 148.11C559.828 149.085 559.189 149.882 558.393 150.502C557.598 151.099 556.687 151.531 555.66 151.797C554.634 152.063 553.577 152.196 552.487 152.196C552.382 152.196 552.204 152.196 551.953 152.196C551.722 152.196 551.471 152.196 551.199 152.196C550.947 152.174 550.696 152.152 550.445 152.129C550.193 152.107 550.015 152.085 549.911 152.063V160.897H547.303V137.882ZM552.676 139.775C552.131 139.775 551.607 139.786 551.105 139.808C550.602 139.831 550.204 139.885 549.911 139.974V149.605C550.015 149.649 550.184 149.683 550.414 149.705C550.644 149.705 550.885 149.715 551.136 149.738C551.388 149.738 551.628 149.738 551.859 149.738C552.089 149.738 552.257 149.738 552.361 149.738C553.074 149.738 553.775 149.671 554.466 149.538C555.179 149.384 555.818 149.118 556.383 148.742C556.949 148.365 557.399 147.834 557.733 147.148C558.09 146.461 558.268 145.587 558.268 144.524C558.268 143.616 558.101 142.864 557.765 142.266C557.451 141.646 557.022 141.159 556.477 140.805C555.953 140.428 555.357 140.162 554.687 140.008C554.016 139.853 553.346 139.775 552.676 139.775Z" fill="#181818"/>
<path d="M582.988 154.454H574.882L572.682 160.897H570.107L578.432 137.284H579.626L587.983 160.897H585.25L582.988 154.454ZM575.73 152.063H582.202L579.751 144.989L578.967 141.469H578.935L578.149 145.056L575.73 152.063Z" fill="#181818"/>
<path d="M604.528 145.687L602.832 142.332H602.706L603.02 145.687V160.897H600.57V137.284H601.952L612.476 152.793L614.11 155.981H614.267L613.922 152.793V137.65H616.372V161.261H614.99L604.528 145.687Z" fill="#181818"/>
<path d="M636.213 151.664L628.956 137.65H632.003L637.155 147.812L637.689 149.837H637.721L638.286 147.746L643.219 137.65H646.015L638.82 151.631V160.897H636.213V151.664Z" fill="#181818"/>
</g>
<defs>
<clipPath id="clip0_454_1099">
<rect width="603.015" height="118.295" fill="white" transform="translate(43 43)"/>
</clipPath>
</defs>
</svg>
